<svg width="24" height="24" viewBox="0 0 24 24" fill="none" xmlns="http://www.w3.org/2000/svg">
<path d="M5.20898 13.0007H16.379L11.499 17.8807C11.109 18.2707 11.109 18.9107 11.499 19.3007C11.889 19.6907 12.519 19.6907 12.909 19.3007L19.499 12.7107C19.889 12.3207 19.889 11.6907 19.499 11.3007L12.919 4.70069C12.7322 4.51344 12.4785 4.4082 12.214 4.4082C11.9495 4.4082 11.6958 4.51344 11.509 4.70069C11.119 5.09069 11.119 5.72069 11.509 6.11069L16.379 11.0007H5.20898C4.65898 11.0007 4.20898 11.4507 4.20898 12.0007C4.20898 12.5507 4.65898 13.0007 5.20898 13.0007Z" fill="#37474F"/>
<mask id="mask0_29634_7963" style="mask-type:luminance" maskUnits="userSpaceOnUse" x="4" y="4" width="16" height="16">
<path d="M5.20898 13.0007H16.379L11.499 17.8807C11.109 18.2707 11.109 18.9107 11.499 19.3007C11.889 19.6907 12.519 19.6907 12.909 19.3007L19.499 12.7107C19.889 12.3207 19.889 11.6907 19.499 11.3007L12.919 4.70069C12.7322 4.51344 12.4785 4.4082 12.214 4.4082C11.9495 4.4082 11.6958 4.51344 11.509 4.70069C11.119 5.09069 11.119 5.72069 11.509 6.11069L16.379 11.0007H5.20898C4.65898 11.0007 4.20898 11.4507 4.20898 12.0007C4.20898 12.5507 4.65898 13.0007 5.20898 13.0007Z" fill="white"/>
</mask>
<g mask="url(#mask0_29634_7963)">
</g>
</svg>
