<svg width="29" height="26" viewBox="0 0 29 26" fill="none" xmlns="http://www.w3.org/2000/svg">
<path d="M6.10939 14.0829H19.2103L13.4867 19.3696C13.0293 19.7921 13.0293 20.4854 13.4867 20.9079C13.9441 21.3304 14.683 21.3304 15.1404 20.9079L22.8696 13.7688C23.327 13.3463 23.327 12.6638 22.8696 12.2413L15.1522 5.09127C14.933 4.88842 14.6356 4.77441 14.3253 4.77441C14.0151 4.77441 13.7176 4.88842 13.4984 5.09127C13.041 5.51377 13.041 6.19627 13.4984 6.61877L19.2103 11.9163H6.10939C5.46431 11.9163 4.93652 12.4038 4.93652 12.9996C4.93652 13.5954 5.46431 14.0829 6.10939 14.0829Z" fill="#37474F"/>
<mask id="mask0_28824_9232" style="mask-type:luminance" maskUnits="userSpaceOnUse" x="4" y="4" width="20" height="18">
<path d="M6.10939 14.0829H19.2103L13.4867 19.3696C13.0293 19.7921 13.0293 20.4854 13.4867 20.9079C13.9441 21.3304 14.683 21.3304 15.1404 20.9079L22.8696 13.7688C23.327 13.3463 23.327 12.6638 22.8696 12.2413L15.1522 5.09127C14.933 4.88842 14.6356 4.77441 14.3253 4.77441C14.0151 4.77441 13.7176 4.88842 13.4984 5.09127C13.041 5.51377 13.041 6.19627 13.4984 6.61877L19.2103 11.9163H6.10939C5.46431 11.9163 4.93652 12.4038 4.93652 12.9996C4.93652 13.5954 5.46431 14.0829 6.10939 14.0829Z" fill="white"/>
</mask>
<g mask="url(#mask0_28824_9232)">
</g>
</svg>
