<svg width="31" height="31" viewBox="0 0 31 31" fill="none" xmlns="http://www.w3.org/2000/svg">
<path fill-rule="evenodd" clip-rule="evenodd" d="M20.0853 3.875H11.5603C8.02908 3.875 5.1665 6.88824 5.1665 10.6053V19.5789C5.1665 23.296 8.02908 26.3092 11.5603 26.3092H20.0853C23.6164 26.3092 26.479 23.296 26.479 19.5789V10.6053C26.479 6.88824 23.6164 3.875 20.0853 3.875ZM7.29776 10.6053C7.29776 8.12724 9.20615 6.11841 11.5603 6.11841H20.0853C22.4394 6.11841 24.3478 8.12724 24.3478 10.6053V19.5789C24.3478 22.057 22.4394 24.0658 20.0853 24.0658H11.5603C9.20615 24.0658 7.29776 22.057 7.29776 19.5789V10.6053ZM15.8228 20.7007C12.8801 20.7007 10.4946 18.1896 10.4946 15.0921C10.4946 11.9946 12.8801 9.48355 15.8228 9.48355C18.7654 9.48355 21.1509 11.9946 21.1509 15.0921C21.1509 18.1896 18.7654 20.7007 15.8228 20.7007ZM15.8228 18.4572C17.5883 18.4572 19.0196 16.9506 19.0196 15.0921C19.0196 13.2336 17.5883 11.727 15.8228 11.727C14.0572 11.727 12.6259 13.2336 12.6259 15.0921C12.6259 16.9506 14.0572 18.4572 15.8228 18.4572ZM21.1509 10.6053C21.7394 10.6053 22.2165 10.1031 22.2165 9.48356C22.2165 8.86405 21.7394 8.36185 21.1509 8.36185C20.5624 8.36185 20.0853 8.86405 20.0853 9.48356C20.0853 10.1031 20.5624 10.6053 21.1509 10.6053Z" fill="#262626"/>
</svg>
