<svg width="31" height="31" viewBox="0 0 31 31" fill="none" xmlns="http://www.w3.org/2000/svg">
<path fill-rule="evenodd" clip-rule="evenodd" d="M17.064 6.8182C18.7386 6.48894 20.2426 6.7278 21.5092 7.33909C21.5783 7.37242 21.645 7.40603 21.7094 7.43977L22.9506 6.93748C24.2288 6.42019 25.5797 7.50218 25.3551 8.86186C25.9638 9.53054 26.0603 10.6478 25.2377 11.3837L23.9647 12.5223C23.9803 13.9225 23.7883 15.1778 23.1987 16.5771C22.1475 19.0714 20.6402 20.9472 18.7961 22.252C17.4927 23.1743 16.0981 23.7599 14.6926 24.075C13.7842 24.2787 13.0135 24.3422 12.4465 24.3281C10.7155 24.3476 9.12109 23.9815 7.69853 23.3588C6.85212 22.9883 6.23031 22.6055 5.85663 22.3168C4.50571 21.2732 5.2748 19.1106 6.9813 19.1544C7.30891 19.1628 7.61575 19.158 7.90274 19.1413C7.35934 18.4971 7.07091 17.8492 6.95377 17.3161C6.91309 17.131 6.90293 16.9475 6.91955 16.7703C6.80678 16.6343 6.70166 16.4931 6.60422 16.3471C5.91375 15.3122 5.71002 14.2484 5.76721 13.34C5.77133 13.284 5.77288 13.263 5.77491 13.242C5.77613 13.2294 5.77752 13.2168 5.77975 13.1967L5.77976 13.1966C5.81081 12.9328 5.89557 12.6947 6.02004 12.4884C5.65438 11.3235 5.73739 10.1522 6.08188 9.04938C6.19392 8.69068 6.31188 8.41015 6.4076 8.22188C6.97795 7.10012 8.50522 6.91806 9.32328 7.87431C10.6113 9.37994 11.8836 10.2751 13.097 10.7089C13.2475 10.7627 13.3921 10.808 13.5305 10.8454C13.9167 8.40741 15.5215 6.94925 17.064 6.8182ZM15.2542 12.913C15.2542 12.913 12.0609 13.6536 8.49749 9.48823C8.49749 9.48823 7.10914 12.2188 9.51583 13.8847C9.51583 13.8847 8.72943 14.0236 8.08082 13.5611C8.08082 13.5611 7.80304 15.9211 10.6725 16.8467H9.14528C9.14528 16.8467 9.56222 18.7442 12.2461 19.1606C12.2461 19.1606 11.1356 20.6414 7.52553 20.5489C7.52553 20.5489 9.56222 22.1223 12.6631 22.0759C12.6631 22.0759 18.4012 22.3537 21.1318 15.8744C21.8032 14.281 21.7335 12.7741 21.6871 12.0333L23.4457 10.4602L21.6871 10.7841C21.6871 10.7841 22.8905 9.9049 23.0296 9.07184L21.0857 9.85851C21.0857 9.85851 19.6279 8.53961 17.1518 9.07184C17.1515 9.07184 14.8842 9.53462 15.2542 12.913Z" fill="#37474F"/>
<mask id="mask0_28824_9282" style="mask-type:luminance" maskUnits="userSpaceOnUse" x="5" y="6" width="21" height="19">
<path fill-rule="evenodd" clip-rule="evenodd" d="M17.064 6.8182C18.7386 6.48894 20.2426 6.7278 21.5092 7.33909C21.5783 7.37242 21.645 7.40603 21.7094 7.43977L22.9506 6.93748C24.2288 6.42019 25.5797 7.50218 25.3551 8.86186C25.9638 9.53054 26.0603 10.6478 25.2377 11.3837L23.9647 12.5223C23.9803 13.9225 23.7883 15.1778 23.1987 16.5771C22.1475 19.0714 20.6402 20.9472 18.7961 22.252C17.4927 23.1743 16.0981 23.7599 14.6926 24.075C13.7842 24.2787 13.0135 24.3422 12.4465 24.3281C10.7155 24.3476 9.12109 23.9815 7.69853 23.3588C6.85212 22.9883 6.23031 22.6055 5.85663 22.3168C4.50571 21.2732 5.2748 19.1106 6.9813 19.1544C7.30891 19.1628 7.61575 19.158 7.90274 19.1413C7.35934 18.4971 7.07091 17.8492 6.95377 17.3161C6.91309 17.131 6.90293 16.9475 6.91955 16.7703C6.80678 16.6343 6.70166 16.4931 6.60422 16.3471C5.91375 15.3122 5.71002 14.2484 5.76721 13.34C5.77133 13.284 5.77288 13.263 5.77491 13.242C5.77613 13.2294 5.77752 13.2168 5.77975 13.1967L5.77976 13.1966C5.81081 12.9328 5.89557 12.6947 6.02004 12.4884C5.65438 11.3235 5.73739 10.1522 6.08188 9.04938C6.19392 8.69068 6.31188 8.41015 6.4076 8.22188C6.97795 7.10012 8.50522 6.91806 9.32328 7.87431C10.6113 9.37994 11.8836 10.2751 13.097 10.7089C13.2475 10.7627 13.3921 10.808 13.5305 10.8454C13.9167 8.40741 15.5215 6.94925 17.064 6.8182ZM15.2542 12.913C15.2542 12.913 12.0609 13.6536 8.49749 9.48823C8.49749 9.48823 7.10914 12.2188 9.51583 13.8847C9.51583 13.8847 8.72943 14.0236 8.08082 13.5611C8.08082 13.5611 7.80304 15.9211 10.6725 16.8467H9.14528C9.14528 16.8467 9.56222 18.7442 12.2461 19.1606C12.2461 19.1606 11.1356 20.6414 7.52553 20.5489C7.52553 20.5489 9.56222 22.1223 12.6631 22.0759C12.6631 22.0759 18.4012 22.3537 21.1318 15.8744C21.8032 14.281 21.7335 12.7741 21.6871 12.0333L23.4457 10.4602L21.6871 10.7841C21.6871 10.7841 22.8905 9.9049 23.0296 9.07184L21.0857 9.85851C21.0857 9.85851 19.6279 8.53961 17.1518 9.07184C17.1515 9.07184 14.8842 9.53462 15.2542 12.913Z" fill="white"/>
</mask>
<g mask="url(#mask0_28824_9282)">
</g>
</svg>
