<svg width="24" height="24" viewBox="0 0 24 24" fill="none" xmlns="http://www.w3.org/2000/svg">
<path fill-rule="evenodd" clip-rule="evenodd" d="M11.9998 20.3327C16.6022 20.3327 20.3332 16.6017 20.3332 11.9993C20.3332 7.39697 16.6022 3.66602 11.9998 3.66602C7.39746 3.66602 3.6665 7.39697 3.6665 11.9993C3.6665 16.6017 7.39746 20.3327 11.9998 20.3327ZM11.9998 18.666C15.6818 18.666 18.6665 15.6813 18.6665 11.9993C18.6665 8.31745 15.6818 5.33268 11.9998 5.33268C8.31794 5.33268 5.33317 8.31745 5.33317 11.9993C5.33317 15.6813 8.31794 18.666 11.9998 18.666ZM11.1665 7.83268H9.49984V13.666H15.3332V11.9993H11.1665V7.83268Z" fill="#2D2D2D"/>
<mask id="mask0_29634_8023" style="mask-type:luminance" maskUnits="userSpaceOnUse" x="3" y="3" width="18" height="18">
<path fill-rule="evenodd" clip-rule="evenodd" d="M11.9998 20.3327C16.6022 20.3327 20.3332 16.6017 20.3332 11.9993C20.3332 7.39697 16.6022 3.66602 11.9998 3.66602C7.39746 3.66602 3.6665 7.39697 3.6665 11.9993C3.6665 16.6017 7.39746 20.3327 11.9998 20.3327ZM11.9998 18.666C15.6818 18.666 18.6665 15.6813 18.6665 11.9993C18.6665 8.31745 15.6818 5.33268 11.9998 5.33268C8.31794 5.33268 5.33317 8.31745 5.33317 11.9993C5.33317 15.6813 8.31794 18.666 11.9998 18.666ZM11.1665 7.83268H9.49984V13.666H15.3332V11.9993H11.1665V7.83268Z" fill="white"/>
</mask>
<g mask="url(#mask0_29634_8023)">
</g>
</svg>
